inDegrees=no
num_controls=7
num_derivatives=13
num_iterations=123
num_multipliers=7
num_parameters=0
num_slacks=7
num_states=26
objective=0.448839
objective_accelerations=0.052363
objective_balance=0.002589
objective_effort=0.019795
objective_height=0.368507
objective_ligament=0.005586
solver_duration=1795.018411
status=Solve_Succeeded
success=true
DataType=double
version=3
OpenSimVersion=4.5
endheader
time	/jointset/ground_pelvis/pelvis_tilt/value	/jointset/ground_pelvis/pelvis_tx/value	/jointset/ground_pelvis/pelvis_ty/value	/jointset/hip_l/hip_flexion_l/value	/jointset/hip_l/hip_adduction_l/value	/jointset/hip_l/hip_rotation_l/value	/jointset/back/lumbar_extension/value	/jointset/patellofemoral_l/patellar_flexion_l/value	/jointset/knee_l/knee_flexion_l/value	/jointset/knee_l/knee_adduction_l/value	/jointset/knee_l/knee_rotation_l/value	/jointset/ankle_l/ankle_angle_l/value	/jointset/subtalar_l/subtalar_angle_l/value	/jointset/ground_pelvis/pelvis_tilt/speed	/jointset/ground_pelvis/pelvis_tx/speed	/jointset/ground_pelvis/pelvis_ty/speed	/jointset/hip_l/hip_flexion_l/speed	/jointset/hip_l/hip_adduction_l/speed	/jointset/hip_l/hip_rotation_l/speed	/jointset/back/lumbar_extension/speed	/jointset/patellofemoral_l/patellar_flexion_l/speed	/jointset/knee_l/knee_flexion_l/speed	/jointset/knee_l/knee_adduction_l/speed	/jointset/knee_l/knee_rotation_l/speed	/jointset/ankle_l/ankle_angle_l/speed	/jointset/subtalar_l/subtalar_angle_l/speed	/forceset/tau_hip_flexion_l	/forceset/tau_hip_adduction_l	/forceset/tau_hip_rotation_l	/forceset/tau_knee_flexion_l	/forceset/tau_ankle_angle_l	/forceset/tau_subtalar_angle_l	/forceset/tau_lumbar_extension	lambda_cid13_p0	lambda_cid13_p1	lambda_cid13_p2	lambda_cid13_p3	lambda_cid13_p4	lambda_cid13_p5	lambda_cid14_p0	/jointset/ground_pelvis/pelvis_tilt/accel	/jointset/ground_pelvis/pelvis_tx/accel	/jointset/ground_pelvis/pelvis_ty/accel	/jointset/hip_l/hip_flexion_l/accel	/jointset/hip_l/hip_adduction_l/accel	/jointset/hip_l/hip_rotation_l/accel	/jointset/back/lumbar_extension/accel	/jointset/patellofemoral_l/patellar_flexion_l/accel	/jointset/knee_l/knee_flexion_l/accel	/jointset/knee_l/knee_adduction_l/accel	/jointset/knee_l/knee_rotation_l/accel	/jointset/ankle_l/ankle_angle_l/accel	/jointset/subtalar_l/subtalar_angle_l/accel	gamma_cid13_p0	gamma_cid13_p1	gamma_cid13_p2	gamma_cid13_p3	gamma_cid13_p4	gamma_cid13_p5	gamma_cid14_p0
0.5	-0.2643307784787395	-0.002864792262257524	0.7780120136270543	0.9569795490918065	-0.4387842502530165	-0.228822803373316	-0.2514140425747727	0.7954278974881047	0.7954278974880367	-0.1320033764947363	-0.1558357567605426	0.1609574896466893	-0.00500510593819781	-0.581153450296286	-0.1364124071201805	-0.4653753881805209	2.10014489506861	-0.2228218956285324	0.7213142158740131	-0.134161737877148	1.962733754882051	1.962733754882117	0.1166261773683682	-0.09473399928625853	0.6085242833511748	0.06878837427145983	-0.1352950367468	0.0296305160307207	-0.01158980964669599	-0.2284809995610899	0.04057447517856701	0.03382889131768498	0.145010535072498	-19.72628140462355	-14.60611202793626	5.839937845129573	-3.157049905262269	-524.518940143366	-61.29759659693816	-25.63564128819234	0.5421760525525288	0.4502561608413237	-0.4339281130242311	-1.084537964210822	0.6682402827886791	-0.1992498655633442	1.015733558185681	-1.236568685377528	-1.236568685377519	0.0722777010764923	0.1562874689097072	-0.4972626333828847	0.5139380229698702	-4.990357816119428e-07	-5.051204670080125e-07	2.525161449384565e-06	9.45974831674368e-08	-5.709952200001608e-07	-4.682298343532458e-07	-3.968697702104322e-07
0.51	-0.2701138307531505	-0.004206252137502245	0.773337585854642	0.9779226510007053	-0.4409799843202046	-0.221618646990165	-0.2527056412495381	0.8149902336861012	0.8149902336860766	-0.1308372984313285	-0.1567747922316392	0.1670164947563156	-0.004293344135296874	-0.5753748005192312	-0.1318697602798321	-0.4694096219489132	2.088180659447621	-0.2163100392566405	0.7194238872562578	-0.124177974239586	1.949463683342284	1.94946368334229	0.1165757152020001	-0.09305985538734103	0.6031836853889969	0.07354195416329391	-0.1397378060579645	0.03084385715701729	-0.01170043160092602	-0.2312030632644457	0.03877537557871096	0.03406898559788071	0.1484910881790569	-20.46128587239907	-14.56104243783773	5.8091660920321	-2.87022551275107	-527.6017152429437	-60.98440941805725	-24.73872486338934	0.6079866435891123	0.4577605312122028	-0.3731990243802459	-1.296653869893024	0.6445955302218154	-0.1982449454485748	0.986701191969137	-1.412619953612584	-1.412619953621603	-0.04573454232228902	0.1754467306477001	-0.5664237203508626	0.452545026546024	-4.696851604502337e-07	-3.836380282160345e-07	2.487629893578629e-06	1.137610776794535e-07	-5.375310184343695e-07	-3.785184419623543e-07	-3.781442641385835e-07
0.52	-0.2758366410891291	-0.00550198722722737	0.768625810141419	0.9987372530516229	-0.4431102123805075	-0.2144362580103049	-0.2538980016028428	0.8344117904556324	0.8344117904556522	-0.1296721302629495	-0.1576965924876941	0.1730193008177771	-0.003534751122626443	-0.5691050626098915	-0.1272674500162616	-0.4728449763426443	2.074444923472627	-0.209720694251454	0.7169607352158242	-0.114314073584917	1.934577869189065	1.934577869189011	0.1164441983624787	-0.09128695627782661	0.5972844737181945	0.07815461622536174	-0.1441805753691455	0.03205719828331295	-0.01181105355515264	-0.2339251269678023	0.03697627597885614	0.03430907987807584	0.1519716412855998	-21.1986641184587	-14.51564463184732	5.778443429613683	-2.618648618713345	-530.747848862899	-60.72523635310651	-23.84292039250616	0.6403936790095188	0.4621888454857404	-0.3141522380919878	-1.438838035012086	0.6837380094476009	-0.3138145500990173	0.9917609616070748	-1.559717208068002	-1.559717208067971	0.05606676644582272	0.1760385110290872	-0.6089853751077594	0.4857544570166263	-4.502065621775963e-07	-2.657587257016008e-07	2.513936785222923e-06	1.37137366553981e-07	-5.156864871038396e-07	-2.972371084233322e-07	-3.67920530770892e-07
0.53	-0.2814944935985664	-0.006751438541813413	0.7638826893034224	1.019406004400208	-0.4451741250280061	-0.2072810763979976	-0.2549923164793378	0.8536766582270628	0.8536766582271526	-0.1285086448879201	-0.1585999982153422	0.1789604809412562	-0.002730620425123512	-0.5623913855195409	-0.1226160977188008	-0.4756755678094551	2.059023273204265	-0.2030512306150236	0.7139737915053391	-0.1045804875195427	1.91814146764829	1.91814146764828	0.1162491460824848	-0.08938775766167714	0.590868889003083	0.08265020055548652	-0.1484065663030894	0.03294515813135598	-0.0118852900672886	-0.2369330320449835	0.03550647497383377	0.03445654553930642	0.1552619174835103	-21.83415148113358	-14.4427809215773	5.737540431968524	-2.389411842564814	-533.884329638571	-60.46105314338924	-22.94946692240332	0.6979071209574288	0.4676455824010033	-0.252069926408037	-1.636204931920305	0.6598132061478226	-0.3067260816398267	0.9594195581567665	-1.723661734279118	-1.723661734272536	-0.05779177808873086	0.1983188291050829	-0.6702382552409532	0.4279990175430162	-4.31280958766079e-07	-1.598145546609252e-07	2.529949506969905e-06	1.600792650916168e-07	-4.985097069474169e-07	-2.190147309832986e-07	-3.574363865998266e-07
